<?xml version="1.0" encoding="utf-8"?>
<!-- Generator: Adobe Illustrator 24.0.0, SVG Export Plug-In . SVG Version: 6.00 Build 0)  -->
<svg version="1.1" id="Capa_1" xmlns="http://www.w3.org/2000/svg" xmlns:xlink="http://www.w3.org/1999/xlink" x="0px" y="0px"
	 viewBox="0 0 300 300" style="enable-background:new 0 0 300 300;" xml:space="preserve">
<style type="text/css">
	.st0{fill:#021D49;}
	.st1{fill:#021D49;}
</style>

<g>
	<path class="st1" d="M241.552,142.944h-60.576c0,0.344,3.786,14.111,3.786,14.111l4.13,14.8h10.67v41.99
		c0,12.735-5.163,24.781-14.111,33.73l0,0c-8.949-8.949-14.111-20.995-14.111-33.73v-30.976
		c-3.786,7.228-8.605,13.767-14.456,19.618l-5.163,5.163l-15.832,15.832l-2.753,2.753l0,0c3.442,9.981,9.293,18.93,16.865,26.502
		l35.451,34.762l35.451-34.762c13.767-13.767,21.339-32.009,21.339-51.283v-45.088L241.552,142.944L241.552,142.944z"/>
	<path class="st1" d="M255.663,69.29h-74.687v28.911l0,0c0,0.344,18.242,0.344,18.242,0.344l0,0v18.242h42.678V90.629
		c0-2.409,0-4.474,1.033-6.539c2.065-6.539,6.884-12.046,13.079-14.456h-0.688L255.663,69.29z"/>
	<path class="st1" d="M171.339,144.321V31.086c0.688-8.26,6.195-15.832,14.111-18.586H43.993
		c7.916,3.098,13.423,10.325,14.111,18.586v113.235c0,19.274,7.572,37.516,21.339,51.283l20.651,20.651l0.688,0.688l0,0V114.377
		h28.223v102.566l0,0l1.377-1.377l19.962-19.962C163.767,182.181,171.339,163.595,171.339,144.321L171.339,144.321z M128.661,69.29
		v16.865h-28.223V41.067h28.223V69.29L128.661,69.29z"/>
</g>
</svg>
