<?xml version="1.0" encoding="utf-8"?>
<!-- Generator: Adobe Illustrator 24.0.0, SVG Export Plug-In . SVG Version: 6.00 Build 0)  -->
<svg version="1.1" id="Capa_1" xmlns="http://www.w3.org/2000/svg" xmlns:xlink="http://www.w3.org/1999/xlink" x="0px" y="0px"
	 viewBox="0 0 300 300" style="enable-background:new 0 0 300 300;" xml:space="preserve">
<style type="text/css">
	.st0{fill:#1D1D1B;}
	.st1{fill:#FFFFFF;}
</style>
<rect class="st0" width="300" height="300"/>
<g>
	<path class="st1" d="M12.4,122.6c0-0.6,0.1-1.2,0.3-1.9l1.4-4.9c7.2-23.6,23.4-37.2,47.3-42.2c2-0.4,4-0.6,6.2-0.9V38.5H41.7V16.9
		H45c17.6,0.1,34.8-0.1,52.8,0c13.3-0.4,20.3,9.1,21.7,18.3c0.9,6.2,1.9,12.5,2.8,18.7c0.9,6.1,1.9,12.2,2.9,18.6h49.3
		c0.9-5.5,1.6-11,2.5-16.6c1.1-7.2,2.1-14.5,3.4-21.7c1.9-10.3,9.5-17.1,19.6-17.3c18.4-0.2,36.8-0.1,55.2-0.1h2.9v21.5h-25.8v34.5
		c18.7,2,34,10.1,45.4,25.8l-17.7,12.3c-5.6-7.4-12.5-12.7-21.5-14.9c-3.9-1-7.9-1.6-12-1.7c-51.1-0.1-102.2-0.1-153.4-0.1
		c-19.1,0-34.9,12-38.5,29.2c-0.4,2.2-0.7,4.4-0.7,6.7c0,10.9,0.1,21.6,0.1,32.5c0,15.6,12.6,30.2,29.4,33.8
		c1.4,0.3,2.8,0.5,4.5,0.8V103h21.4v94.4h24.4c1.1,7.3,2.1,14.3,3.2,21.4c-11.1,0-22,0.1-32.8,0c-7.1-0.1-14.4,0.1-21.6-0.9
		c-24.6-3.6-44.6-22.8-50-47.7 M210.3,72.6v-34h-8.9c-1.7,11.4-3.4,22.6-5.1,34L210.3,72.6z M103.4,72.6c-1.7-11.6-3.4-22.8-5.1-34
		h-8.7v34H103.4z"/>
	<path class="st1" d="M145.8,284.3c-0.4-0.4-0.9-0.6-1.3-0.9c-8-2.9-12.4-8.9-13.6-17.1c-4.4-30.9-8.6-61.8-12.9-92.7
		c-3.3-23.6-6.6-47-10.1-70.8h21.8c6.6,51.5,13.1,102.9,19.6,154.5l0.8,0.1c3.5-30.8,6.9-61.5,10.4-92.4h21.7
		c-2.4,17.5-4.6,34.8-6.9,52.1c-2.1,15.5-4.3,31.1-6.2,46.5c-1.3,10.4-6.2,17.6-16.6,20.5L145.8,284.3z"/>
	<path class="st1" d="M231.9,165.3v31.5c18.7,0.9,36.1-19.9,33.6-40.3H146.3l-3.2-21.6h22.1c1.6-10.8,3.2-21.3,4.9-32.1h21.8
		c-1.6,10.7-3.1,21.2-4.7,31.9h23.4V103H232v31.9h55.4c0,1.6,0.1,2.9,0,4.2c-0.4,11.1,0.5,22.5-1.4,33.4
		c-4,23.5-24.1,41.9-47.8,45.5c-3.4,0.5-6.9,0.8-10.4,0.8c-13.6,0.1-27.3,0.2-41,0.3c-1.2,0-2.4,0-4,0c1.1-7.2,2.1-14.1,3.1-21.4
		h24.4v-32.3L231.9,165.3z"/>
	<path class="st1" d="M41.7,274.7v-21.3h26.1v-25.9h21.4v25.7h26.1v21.5L41.7,274.7L41.7,274.7z"/>
	<path class="st1" d="M231.8,253.3H258v21.3h-73.6v-21.3h26.1v-25.8h21.3V253.3z"/>
</g>
</svg>
