<?xml version="1.0" standalone="no"?>
<!DOCTYPE svg PUBLIC "-//W3C//DTD SVG 20010904//EN"
 "http://www.w3.org/TR/2001/REC-SVG-20010904/DTD/svg10.dtd">
<svg version="1.0" xmlns="http://www.w3.org/2000/svg"
 width="105.000000pt" height="140.000000pt" viewBox="0 0 105.000000 140.000000"
 preserveAspectRatio="xMidYMid meet">

<g transform="translate(0.000000,140.000000) scale(0.100000,-0.100000)"
fill="#000000" stroke="none">
<path d="M488 1291 c-56 -18 -100 -54 -130 -107 -19 -35 -36 -54 -48 -54 -11
0 -31 -6 -46 -12 -22 -10 -28 -10 -32 0 -5 15 -118 17 -127 1 -4 -5 0 -18 9
-28 14 -15 16 -61 16 -373 0 -304 -2 -357 -15 -368 -8 -7 -15 -28 -15 -46 l0
-34 85 0 85 0 0 34 c0 21 -6 36 -15 40 -13 5 -15 31 -13 173 3 166 3 168 26
171 19 3 22 9 22 47 0 38 -3 44 -22 47 -22 3 -23 7 -23 100 0 90 2 98 24 117
14 12 29 20 35 18 8 -2 13 -121 16 -363 5 -348 6 -361 28 -409 25 -55 72 -109
114 -131 38 -20 135 -17 183 5 52 23 102 81 111 127 3 19 13 38 20 41 8 3 14
20 14 39 l0 34 -76 0 -77 0 7 -54 c5 -50 4 -56 -19 -75 -59 -46 -129 -35 -167
28 -23 35 -23 43 -26 379 -2 196 1 342 6 342 17 0 42 -37 42 -63 0 -26 2 -27
50 -27 l50 0 0 90 0 90 -28 0 c-15 0 -33 -5 -40 -12 -9 -9 -19 -5 -42 17 -37
35 -37 47 -5 79 44 44 129 55 188 24 11 -6 17 -21 17 -43 l0 -35 61 0 61 0 -7
37 c-14 78 -34 109 -83 134 -51 25 -163 36 -214 20z"/>
<path d="M690 1032 c0 -21 5 -43 11 -49 9 -9 -15 -85 -91 -295 -57 -156 -111
-298 -122 -315 -12 -20 -17 -41 -13 -53 5 -17 15 -20 71 -20 l64 0 0 33 c0 18
-5 38 -10 43 -7 7 -4 29 11 70 33 86 31 85 123 82 l81 -3 12 -70 c9 -46 10
-72 3 -79 -6 -6 -10 -25 -10 -43 l0 -33 65 0 65 0 0 29 c0 16 -7 42 -15 58
-24 45 -109 564 -96 585 6 10 11 36 11 58 l0 40 -80 0 -80 0 0 -38z m93 -311
c9 -52 14 -98 11 -103 -7 -11 -101 -10 -109 2 -3 5 11 57 32 114 21 58 41 100
44 93 4 -7 14 -54 22 -106z"/>
</g>
</svg>
